<svg xmlns="http://www.w3.org/2000/svg" width="1200" height="446" viewBox="0 0 1200 446" role="img" aria-label="README Arcade | Bugs incoming. Ship anyway." font-family="Arial,Helvetica,sans-serif">
<title>README Arcade | Bugs incoming. Ship anyway.</title>
<style>.heavy{font-weight:900;letter-spacing:-5px}.orbit{transform-box:fill-box;transform-origin:center;animation:orbit 32s linear infinite}.reverse{animation-direction:reverse;animation-duration:45s}.breathe{animation:breathe 4s ease-in-out infinite}.cursor{animation:cursor 1.3s steps(1) infinite}.flow{stroke-dasharray:6 12;animation:flow 4s linear infinite}.float{animation:float 7s ease-in-out infinite}@keyframes orbit{to{transform:rotate(360deg)}}@keyframes breathe{50%{opacity:.35}}@keyframes cursor{50%{opacity:0}}@keyframes flow{to{stroke-dashoffset:-72}}@keyframes float{50%{transform:translateY(-8px)}}@media(prefers-reduced-motion:reduce){.orbit,.breathe,.cursor,.flow,.float{animation:none!important}}</style>

 <defs><clipPath id="arena"><rect x="22" y="126" width="1156" height="246" rx="16"/></clipPath></defs>
 <style>.player{animation:dodge 6s ease-in-out infinite}.enemy{animation:invade 12s linear infinite}.enemy-0{animation-delay:-1s}.enemy-1{animation-delay:-8s}.enemy-2{animation-delay:-5s}.enemy-3{animation-delay:-10.5s}.bolt{animation:shoot 2.4s linear infinite}.bolt-2{animation-delay:-.8s}.bolt-3{animation-delay:-1.6s}@keyframes invade{from{transform:translateX(70px)}to{transform:translateX(-1200px)}}@keyframes dodge{0%,100%{transform:translateY(0)}25%{transform:translateY(-42px)}75%{transform:translateY(42px)}}@keyframes shoot{from{transform:translateX(0);opacity:0}8%,88%{opacity:1}to{transform:translateX(1080px);opacity:0}}@media(prefers-reduced-motion:reduce){.player,.enemy,.bolt{animation:none!important}}</style>
 <rect x="1" y="1" width="1198" height="444" rx="24" fill="#090c12" stroke="#26303e"/><text x="28" y="35" fill="#77e1df" font-size="13" font-family="Consolas, 'Liberation Mono', monospace" >README ARCADE</text><text x="1172" y="35" fill="#a1aaba" font-size="12" font-family="Consolas, 'Liberation Mono', monospace" text-anchor="end">AUTOPLAY / LOOP</text>
 <text x="28" y="92" fill="#f2f5ec" font-size="42" font-weight="900" letter-spacing="-1">BUGS INCOMING.</text><text x="470" y="92" fill="#c8ff62" font-size="42" font-weight="900" letter-spacing="-1">SHIP ANYWAY.</text>
 <rect x="22" y="126" width="1156" height="246" rx="16" fill="#10151e" stroke="#26303e"/>
 <g clip-path="url(#arena)"><rect x="30" y="141" width="3" height="2" fill="#a899ff" opacity="0.5"/><rect x="157" y="184" width="2" height="2" fill="#a1aaba" opacity="0.2"/><rect x="284" y="227" width="2" height="2" fill="#a1aaba" opacity="0.2"/><rect x="411" y="270" width="2" height="2" fill="#a1aaba" opacity="0.5"/><rect x="538" y="313" width="2" height="2" fill="#a1aaba" opacity="0.2"/><rect x="665" y="356" width="3" height="2" fill="#a899ff" opacity="0.2"/><rect x="792" y="183" width="2" height="2" fill="#a1aaba" opacity="0.5"/><rect x="919" y="226" width="2" height="2" fill="#a1aaba" opacity="0.2"/><rect x="1046" y="269" width="2" height="2" fill="#a1aaba" opacity="0.2"/><rect x="33" y="312" width="2" height="2" fill="#a1aaba" opacity="0.5"/><rect x="160" y="355" width="3" height="2" fill="#a899ff" opacity="0.2"/><rect x="287" y="182" width="2" height="2" fill="#a1aaba" opacity="0.2"/><rect x="414" y="225" width="2" height="2" fill="#a1aaba" opacity="0.5"/><rect x="541" y="268" width="2" height="2" fill="#a1aaba" opacity="0.2"/><rect x="668" y="311" width="2" height="2" fill="#a1aaba" opacity="0.2"/><rect x="795" y="354" width="3" height="2" fill="#a899ff" opacity="0.5"/><rect x="922" y="181" width="2" height="2" fill="#a1aaba" opacity="0.2"/><rect x="1049" y="224" width="2" height="2" fill="#a1aaba" opacity="0.2"/><rect x="36" y="267" width="2" height="2" fill="#a1aaba" opacity="0.5"/><rect x="163" y="310" width="2" height="2" fill="#a1aaba" opacity="0.2"/><rect x="290" y="353" width="3" height="2" fill="#a899ff" opacity="0.2"/><rect x="417" y="180" width="2" height="2" fill="#a1aaba" opacity="0.5"/><rect x="544" y="223" width="2" height="2" fill="#a1aaba" opacity="0.2"/><rect x="671" y="266" width="2" height="2" fill="#a1aaba" opacity="0.2"/><rect x="798" y="309" width="2" height="2" fill="#a1aaba" opacity="0.5"/><rect x="925" y="352" width="3" height="2" fill="#a899ff" opacity="0.2"/><rect x="1052" y="179" width="2" height="2" fill="#a1aaba" opacity="0.2"/><rect x="39" y="222" width="2" height="2" fill="#a1aaba" opacity="0.5"/><rect x="166" y="265" width="2" height="2" fill="#a1aaba" opacity="0.2"/><rect x="293" y="308" width="2" height="2" fill="#a1aaba" opacity="0.2"/><rect x="420" y="351" width="3" height="2" fill="#a899ff" opacity="0.5"/><rect x="547" y="178" width="2" height="2" fill="#a1aaba" opacity="0.2"/><rect x="674" y="221" width="2" height="2" fill="#a1aaba" opacity="0.2"/><rect x="801" y="264" width="2" height="2" fill="#a1aaba" opacity="0.5"/><rect x="928" y="307" width="2" height="2" fill="#a1aaba" opacity="0.2"/><rect x="1055" y="350" width="3" height="2" fill="#a899ff" opacity="0.2"/><rect x="42" y="177" width="2" height="2" fill="#a1aaba" opacity="0.5"/><rect x="169" y="220" width="2" height="2" fill="#a1aaba" opacity="0.2"/><path d="M22 249H1178" stroke="#26303e" stroke-dasharray="3 10"/>
 <g transform="translate(1130 156)"><g class="enemy enemy-0"><rect x="5" y="0" width="5" height="5" fill="#ff7a90"/><rect x="30" y="0" width="5" height="5" fill="#ff7a90"/><rect x="10" y="5" width="5" height="5" fill="#ff7a90"/><rect x="25" y="5" width="5" height="5" fill="#ff7a90"/><rect x="5" y="10" width="5" height="5" fill="#ff7a90"/><rect x="10" y="10" width="5" height="5" fill="#ff7a90"/><rect x="15" y="10" width="5" height="5" fill="#ff7a90"/><rect x="20" y="10" width="5" height="5" fill="#ff7a90"/><rect x="25" y="10" width="5" height="5" fill="#ff7a90"/><rect x="30" y="10" width="5" height="5" fill="#ff7a90"/><rect x="0" y="15" width="5" height="5" fill="#ff7a90"/><rect x="5" y="15" width="5" height="5" fill="#ff7a90"/><rect x="15" y="15" width="5" height="5" fill="#ff7a90"/><rect x="20" y="15" width="5" height="5" fill="#ff7a90"/><rect x="30" y="15" width="5" height="5" fill="#ff7a90"/><rect x="35" y="15" width="5" height="5" fill="#ff7a90"/><rect x="0" y="20" width="5" height="5" fill="#ff7a90"/><rect x="5" y="20" width="5" height="5" fill="#ff7a90"/><rect x="10" y="20" width="5" height="5" fill="#ff7a90"/><rect x="15" y="20" width="5" height="5" fill="#ff7a90"/><rect x="20" y="20" width="5" height="5" fill="#ff7a90"/><rect x="25" y="20" width="5" height="5" fill="#ff7a90"/><rect x="30" y="20" width="5" height="5" fill="#ff7a90"/><rect x="35" y="20" width="5" height="5" fill="#ff7a90"/><rect x="0" y="25" width="5" height="5" fill="#ff7a90"/><rect x="10" y="25" width="5" height="5" fill="#ff7a90"/><rect x="25" y="25" width="5" height="5" fill="#ff7a90"/><rect x="35" y="25" width="5" height="5" fill="#ff7a90"/><rect x="0" y="30" width="5" height="5" fill="#ff7a90"/><rect x="10" y="30" width="5" height="5" fill="#ff7a90"/><rect x="25" y="30" width="5" height="5" fill="#ff7a90"/><rect x="35" y="30" width="5" height="5" fill="#ff7a90"/><rect x="10" y="35" width="5" height="5" fill="#ff7a90"/><rect x="25" y="35" width="5" height="5" fill="#ff7a90"/></g></g><g transform="translate(1130 209.66666666666666)"><g class="enemy enemy-1"><rect x="5" y="0" width="5" height="5" fill="#ff7a90"/><rect x="30" y="0" width="5" height="5" fill="#ff7a90"/><rect x="10" y="5" width="5" height="5" fill="#ff7a90"/><rect x="25" y="5" width="5" height="5" fill="#ff7a90"/><rect x="5" y="10" width="5" height="5" fill="#ff7a90"/><rect x="10" y="10" width="5" height="5" fill="#ff7a90"/><rect x="15" y="10" width="5" height="5" fill="#ff7a90"/><rect x="20" y="10" width="5" height="5" fill="#ff7a90"/><rect x="25" y="10" width="5" height="5" fill="#ff7a90"/><rect x="30" y="10" width="5" height="5" fill="#ff7a90"/><rect x="0" y="15" width="5" height="5" fill="#ff7a90"/><rect x="5" y="15" width="5" height="5" fill="#ff7a90"/><rect x="15" y="15" width="5" height="5" fill="#ff7a90"/><rect x="20" y="15" width="5" height="5" fill="#ff7a90"/><rect x="30" y="15" width="5" height="5" fill="#ff7a90"/><rect x="35" y="15" width="5" height="5" fill="#ff7a90"/><rect x="0" y="20" width="5" height="5" fill="#ff7a90"/><rect x="5" y="20" width="5" height="5" fill="#ff7a90"/><rect x="10" y="20" width="5" height="5" fill="#ff7a90"/><rect x="15" y="20" width="5" height="5" fill="#ff7a90"/><rect x="20" y="20" width="5" height="5" fill="#ff7a90"/><rect x="25" y="20" width="5" height="5" fill="#ff7a90"/><rect x="30" y="20" width="5" height="5" fill="#ff7a90"/><rect x="35" y="20" width="5" height="5" fill="#ff7a90"/><rect x="0" y="25" width="5" height="5" fill="#ff7a90"/><rect x="10" y="25" width="5" height="5" fill="#ff7a90"/><rect x="25" y="25" width="5" height="5" fill="#ff7a90"/><rect x="35" y="25" width="5" height="5" fill="#ff7a90"/><rect x="0" y="30" width="5" height="5" fill="#ff7a90"/><rect x="10" y="30" width="5" height="5" fill="#ff7a90"/><rect x="25" y="30" width="5" height="5" fill="#ff7a90"/><rect x="35" y="30" width="5" height="5" fill="#ff7a90"/><rect x="10" y="35" width="5" height="5" fill="#ff7a90"/><rect x="25" y="35" width="5" height="5" fill="#ff7a90"/></g></g><g transform="translate(1130 263.3333333333333)"><g class="enemy enemy-2"><rect x="5" y="0" width="5" height="5" fill="#ff7a90"/><rect x="30" y="0" width="5" height="5" fill="#ff7a90"/><rect x="10" y="5" width="5" height="5" fill="#ff7a90"/><rect x="25" y="5" width="5" height="5" fill="#ff7a90"/><rect x="5" y="10" width="5" height="5" fill="#ff7a90"/><rect x="10" y="10" width="5" height="5" fill="#ff7a90"/><rect x="15" y="10" width="5" height="5" fill="#ff7a90"/><rect x="20" y="10" width="5" height="5" fill="#ff7a90"/><rect x="25" y="10" width="5" height="5" fill="#ff7a90"/><rect x="30" y="10" width="5" height="5" fill="#ff7a90"/><rect x="0" y="15" width="5" height="5" fill="#ff7a90"/><rect x="5" y="15" width="5" height="5" fill="#ff7a90"/><rect x="15" y="15" width="5" height="5" fill="#ff7a90"/><rect x="20" y="15" width="5" height="5" fill="#ff7a90"/><rect x="30" y="15" width="5" height="5" fill="#ff7a90"/><rect x="35" y="15" width="5" height="5" fill="#ff7a90"/><rect x="0" y="20" width="5" height="5" fill="#ff7a90"/><rect x="5" y="20" width="5" height="5" fill="#ff7a90"/><rect x="10" y="20" width="5" height="5" fill="#ff7a90"/><rect x="15" y="20" width="5" height="5" fill="#ff7a90"/><rect x="20" y="20" width="5" height="5" fill="#ff7a90"/><rect x="25" y="20" width="5" height="5" fill="#ff7a90"/><rect x="30" y="20" width="5" height="5" fill="#ff7a90"/><rect x="35" y="20" width="5" height="5" fill="#ff7a90"/><rect x="0" y="25" width="5" height="5" fill="#ff7a90"/><rect x="10" y="25" width="5" height="5" fill="#ff7a90"/><rect x="25" y="25" width="5" height="5" fill="#ff7a90"/><rect x="35" y="25" width="5" height="5" fill="#ff7a90"/><rect x="0" y="30" width="5" height="5" fill="#ff7a90"/><rect x="10" y="30" width="5" height="5" fill="#ff7a90"/><rect x="25" y="30" width="5" height="5" fill="#ff7a90"/><rect x="35" y="30" width="5" height="5" fill="#ff7a90"/><rect x="10" y="35" width="5" height="5" fill="#ff7a90"/><rect x="25" y="35" width="5" height="5" fill="#ff7a90"/></g></g><g transform="translate(1130 156)"><g class="enemy enemy-3"><rect x="5" y="0" width="5" height="5" fill="#ff7a90"/><rect x="30" y="0" width="5" height="5" fill="#ff7a90"/><rect x="10" y="5" width="5" height="5" fill="#ff7a90"/><rect x="25" y="5" width="5" height="5" fill="#ff7a90"/><rect x="5" y="10" width="5" height="5" fill="#ff7a90"/><rect x="10" y="10" width="5" height="5" fill="#ff7a90"/><rect x="15" y="10" width="5" height="5" fill="#ff7a90"/><rect x="20" y="10" width="5" height="5" fill="#ff7a90"/><rect x="25" y="10" width="5" height="5" fill="#ff7a90"/><rect x="30" y="10" width="5" height="5" fill="#ff7a90"/><rect x="0" y="15" width="5" height="5" fill="#ff7a90"/><rect x="5" y="15" width="5" height="5" fill="#ff7a90"/><rect x="15" y="15" width="5" height="5" fill="#ff7a90"/><rect x="20" y="15" width="5" height="5" fill="#ff7a90"/><rect x="30" y="15" width="5" height="5" fill="#ff7a90"/><rect x="35" y="15" width="5" height="5" fill="#ff7a90"/><rect x="0" y="20" width="5" height="5" fill="#ff7a90"/><rect x="5" y="20" width="5" height="5" fill="#ff7a90"/><rect x="10" y="20" width="5" height="5" fill="#ff7a90"/><rect x="15" y="20" width="5" height="5" fill="#ff7a90"/><rect x="20" y="20" width="5" height="5" fill="#ff7a90"/><rect x="25" y="20" width="5" height="5" fill="#ff7a90"/><rect x="30" y="20" width="5" height="5" fill="#ff7a90"/><rect x="35" y="20" width="5" height="5" fill="#ff7a90"/><rect x="0" y="25" width="5" height="5" fill="#ff7a90"/><rect x="10" y="25" width="5" height="5" fill="#ff7a90"/><rect x="25" y="25" width="5" height="5" fill="#ff7a90"/><rect x="35" y="25" width="5" height="5" fill="#ff7a90"/><rect x="0" y="30" width="5" height="5" fill="#ff7a90"/><rect x="10" y="30" width="5" height="5" fill="#ff7a90"/><rect x="25" y="30" width="5" height="5" fill="#ff7a90"/><rect x="35" y="30" width="5" height="5" fill="#ff7a90"/><rect x="10" y="35" width="5" height="5" fill="#ff7a90"/><rect x="25" y="35" width="5" height="5" fill="#ff7a90"/></g></g><g transform="translate(120 227)"><g class="player"><path class="breathe" d="M-8 12-34 22-8 33Z" fill="#a899ff"/><rect x="20" y="0" width="5" height="5" fill="#c8ff62"/><rect x="20" y="5" width="5" height="5" fill="#c8ff62"/><rect x="25" y="5" width="5" height="5" fill="#c8ff62"/><rect x="30" y="5" width="5" height="5" fill="#c8ff62"/><rect x="0" y="10" width="5" height="5" fill="#c8ff62"/><rect x="5" y="10" width="5" height="5" fill="#c8ff62"/><rect x="10" y="10" width="5" height="5" fill="#c8ff62"/><rect x="15" y="10" width="5" height="5" fill="#c8ff62"/><rect x="20" y="10" width="5" height="5" fill="#c8ff62"/><rect x="25" y="10" width="5" height="5" fill="#c8ff62"/><rect x="30" y="10" width="5" height="5" fill="#c8ff62"/><rect x="35" y="10" width="5" height="5" fill="#c8ff62"/><rect x="40" y="10" width="5" height="5" fill="#c8ff62"/><rect x="5" y="15" width="5" height="5" fill="#c8ff62"/><rect x="10" y="15" width="5" height="5" fill="#c8ff62"/><rect x="15" y="15" width="5" height="5" fill="#c8ff62"/><rect x="20" y="15" width="5" height="5" fill="#c8ff62"/><rect x="25" y="15" width="5" height="5" fill="#c8ff62"/><rect x="30" y="15" width="5" height="5" fill="#c8ff62"/><rect x="35" y="15" width="5" height="5" fill="#c8ff62"/><rect x="40" y="15" width="5" height="5" fill="#c8ff62"/><rect x="45" y="15" width="5" height="5" fill="#c8ff62"/><rect x="50" y="15" width="5" height="5" fill="#c8ff62"/><rect x="0" y="20" width="5" height="5" fill="#c8ff62"/><rect x="5" y="20" width="5" height="5" fill="#c8ff62"/><rect x="10" y="20" width="5" height="5" fill="#c8ff62"/><rect x="15" y="20" width="5" height="5" fill="#c8ff62"/><rect x="20" y="20" width="5" height="5" fill="#c8ff62"/><rect x="25" y="20" width="5" height="5" fill="#c8ff62"/><rect x="30" y="20" width="5" height="5" fill="#c8ff62"/><rect x="35" y="20" width="5" height="5" fill="#c8ff62"/><rect x="40" y="20" width="5" height="5" fill="#c8ff62"/><rect x="45" y="20" width="5" height="5" fill="#c8ff62"/><rect x="50" y="20" width="5" height="5" fill="#c8ff62"/><rect x="55" y="20" width="5" height="5" fill="#c8ff62"/><rect x="60" y="20" width="5" height="5" fill="#c8ff62"/><rect x="65" y="20" width="5" height="5" fill="#c8ff62"/><rect x="5" y="25" width="5" height="5" fill="#c8ff62"/><rect x="10" y="25" width="5" height="5" fill="#c8ff62"/><rect x="15" y="25" width="5" height="5" fill="#c8ff62"/><rect x="20" y="25" width="5" height="5" fill="#c8ff62"/><rect x="25" y="25" width="5" height="5" fill="#c8ff62"/><rect x="30" y="25" width="5" height="5" fill="#c8ff62"/><rect x="35" y="25" width="5" height="5" fill="#c8ff62"/><rect x="40" y="25" width="5" height="5" fill="#c8ff62"/><rect x="45" y="25" width="5" height="5" fill="#c8ff62"/><rect x="50" y="25" width="5" height="5" fill="#c8ff62"/><rect x="0" y="30" width="5" height="5" fill="#c8ff62"/><rect x="5" y="30" width="5" height="5" fill="#c8ff62"/><rect x="10" y="30" width="5" height="5" fill="#c8ff62"/><rect x="15" y="30" width="5" height="5" fill="#c8ff62"/><rect x="20" y="30" width="5" height="5" fill="#c8ff62"/><rect x="25" y="30" width="5" height="5" fill="#c8ff62"/><rect x="30" y="30" width="5" height="5" fill="#c8ff62"/><rect x="35" y="30" width="5" height="5" fill="#c8ff62"/><rect x="40" y="30" width="5" height="5" fill="#c8ff62"/><rect x="20" y="35" width="5" height="5" fill="#c8ff62"/><rect x="25" y="35" width="5" height="5" fill="#c8ff62"/><rect x="30" y="35" width="5" height="5" fill="#c8ff62"/><rect x="20" y="40" width="5" height="5" fill="#c8ff62"/>
 <g transform="translate(75 20)"><rect class="bolt" width="19" height="4" rx="2" fill="#77e1df"/><rect class="bolt bolt-2" width="19" height="4" rx="2" fill="#77e1df"/><rect class="bolt bolt-3" width="19" height="4" rx="2" fill="#77e1df"/></g></g></g>
 <text x="40" y="356" fill="#c8ff62" font-size="11" font-family="Consolas, 'Liberation Mono', monospace" >PLAYER 01 / SHIVANSH</text><text x="1160" y="356" fill="#a899ff" font-size="11" font-family="Consolas, 'Liberation Mono', monospace" text-anchor="end">[ STILL BUILDING ]</text></g>
 <text x="28" y="418" fill="#f2f5ec" font-size="16" font-family="Consolas, 'Liberation Mono', monospace" >$ keep_building()</text><rect class="cursor" x="204" y="401" width="10" height="20" fill="#c8ff62"/><text x="1172" y="418" fill="#a1aaba" font-size="12" font-family="Consolas, 'Liberation Mono', monospace" text-anchor="end">THE SIDE QUEST IS BELOW ↓</text></svg>
